<?xml version="1.0" standalone="no"?>
<!DOCTYPE svg PUBLIC "-//W3C//DTD SVG 20010904//EN"
 "http://www.w3.org/TR/2001/REC-SVG-20010904/DTD/svg10.dtd">
<svg version="1.0" xmlns="http://www.w3.org/2000/svg"
 width="260.000000pt" height="260.000000pt" viewBox="0 0 260.000000 260.000000"
 preserveAspectRatio="xMidYMid meet">
<metadata>
Created by potrace 1.11, written by Peter Selinger 2001-2013
</metadata>
<g transform="translate(0.000000,260.000000) scale(0.100000,-0.100000)"
fill="#000000" stroke="none">
<path d="M60 2455 c0 -14 3 -25 8 -26 159 -18 202 -34 228 -86 18 -36 19 -75
21 -738 2 -749 0 -779 -47 -817 -29 -23 -115 -44 -197 -47 -7 -1 -13 -12 -13
-26 l0 -25 398 0 398 0 0 25 c0 16 -6 25 -15 26 -23 1 -71 7 -111 14 -60 11
-91 34 -113 83 -21 46 -21 56 -21 747 0 690 0 701 21 747 13 28 32 52 50 61
30 16 115 33 174 36 12 1 16 9 15 26 l-1 25 -397 0 -398 0 0 -25z"/>
<path d="M1237 1529 c-6 -4 -30 -9 -52 -13 -22 -3 -41 -5 -42 -6 -5 -1 -33
-65 -33 -77 0 -12 25 -70 35 -81 2 -2 12 1 22 7 11 5 30 12 44 14 13 2 44 13
69 24 69 31 88 35 107 24 11 -6 24 -6 36 1 14 7 28 5 52 -8 29 -15 37 -16 65
-4 40 17 115 14 153 -5 17 -8 39 -15 50 -15 20 0 60 -11 122 -32 17 -6 44 -11
60 -12 17 0 36 -5 43 -9 7 -5 34 -9 60 -11 29 -1 68 -13 102 -31 30 -16 82
-42 115 -58 33 -16 73 -40 88 -53 16 -13 35 -24 42 -24 7 0 25 -24 39 -53 28
-56 28 -105 0 -128 -8 -6 -14 -18 -14 -25 0 -7 -6 -11 -13 -8 -8 3 -20 -2 -27
-11 -7 -8 -18 -15 -25 -15 -7 0 -20 -11 -29 -25 -10 -15 -26 -25 -41 -25 -13
0 -30 -8 -37 -18 -7 -10 -51 -28 -98 -41 -47 -13 -89 -28 -95 -32 -5 -5 -17
-9 -26 -9 -9 0 -22 -7 -29 -15 -7 -8 -22 -15 -34 -15 -11 0 -36 -9 -54 -20
-19 -12 -53 -22 -77 -23 -24 -1 -47 -6 -51 -10 -4 -4 -16 -7 -26 -7 -10 0 -34
-9 -54 -19 -20 -11 -42 -17 -50 -14 -8 3 -30 -4 -49 -16 -20 -12 -42 -21 -50
-21 -22 0 -35 31 -23 54 9 16 17 128 19 246 0 19 7 42 15 51 9 10 16 33 18 53
1 20 7 41 13 47 8 8 7 21 -5 50 -14 38 -14 43 6 92 37 89 25 121 -48 129 -34
3 -50 -9 -50 -38 0 -14 -8 -36 -17 -50 -17 -26 -18 -43 -27 -261 -3 -62 -7
-117 -10 -122 -3 -5 -8 -46 -11 -91 -3 -45 -9 -90 -14 -99 -4 -9 -7 -28 -6
-43 2 -30 -12 -37 -90 -45 -27 -3 -52 -7 -55 -9 -13 -14 23 -40 69 -50 74 -17
78 -22 75 -104 -1 -38 2 -73 7 -76 5 -3 9 -35 9 -72 1 -59 6 -76 43 -147 44
-84 42 -83 111 -71 37 6 48 18 44 47 -2 20 -8 24 -35 21 l-31 -3 -7 58 c-3 32
-10 68 -16 81 -5 13 -7 28 -4 33 3 5 2 23 -3 41 -4 18 -5 47 -2 63 4 18 1 42
-7 58 -24 48 -7 75 70 108 37 15 69 28 72 28 3 0 18 -4 34 -9 25 -7 30 -5 39
15 8 17 18 23 35 21 35 -4 167 31 187 49 9 8 30 15 47 15 17 0 41 8 54 18 45
32 87 52 113 52 14 0 26 3 26 8 0 4 13 8 30 8 16 1 43 13 59 27 17 14 44 28
59 32 16 3 40 16 53 28 13 12 38 34 56 48 41 33 110 116 116 139 2 9 -9 36
-24 59 -16 23 -29 47 -29 54 0 7 -23 30 -50 50 -28 21 -50 42 -50 47 0 6 -7
10 -16 10 -24 0 -94 43 -94 59 0 8 -6 11 -16 7 -9 -4 -28 4 -46 19 -17 14 -42
25 -59 25 -16 0 -29 5 -29 10 0 6 -7 10 -16 10 -8 0 -39 11 -68 25 -30 14 -61
22 -70 19 -9 -3 -22 -2 -29 4 -12 10 -104 32 -146 35 -12 1 -21 5 -21 10 0 5
-14 7 -32 5 -18 -3 -48 1 -68 10 -22 9 -82 16 -160 19 -69 2 -132 7 -140 10
-23 8 -139 10 -153 2z"/>
</g>
</svg>
